<!-- <svg xmlns="http://www.w3.org/2000/svg" width="48" height="48" viewBox="0 0 32 10.101"> -->
<svg xmlns="http://www.w3.org/2000/svg" width="48" height="48" viewBox="0 0 32 10.101">
    <path data-name="Union 9" d="M9.452-1397.437c.1-.667 3.42-.834 3.606-.834.55 0 1.312-.045.61-.249a3.028 3.028 0 0 1-1.518-1.272 2.1 2.1 0 0 1-1.242-1 4.083 4.083 0 0 1-2.068-.926 20.138 20.138 0 0 1-6.135-1.358c-.743-.307-2.921-1.772-2.689-1.85.711-.239 2.4.221 3.173.3 1.725.185 3.464.155 5.2.208.2.006.417 0 .646 0a3.484 3.484 0 0 1 2.4.5c.83.751 3.933 4.751 4.727 4.288.173-.1-.169-.257-.559-.38a.1.1 0 0 1-.064-.105.1.1 0 0 1 .081-.093c1.723-.4 2.679.635 4.85.923 1.779.236 1.985 1.217 1.695 2.2-.209.707.218 1.11 0 1.6-.114.256-.267.038-.294-.037-.413-1.179-.958-2.423-3.16-1.678a7.063 7.063 0 0 1-2.332.539 6.547 6.547 0 0 1-1.367-.113 4.229 4.229 0 0 0-1.571-.066c-.539.1-.79 1.364-1.5 1.91a.245.245 0 0 1-.149.038c-.607-.008-2.437-1.124-2.34-2.545zm7.93-3.078c1.057-.988 2.218-2.443 3.177-3.413a3.438 3.438 0 0 1 2.405-.5c.232 0 .45.009.645 0 1.734-.053 3.475-.023 5.2-.207.775-.082 2.461-.544 3.173-.3.232.078-1.947 1.543-2.69 1.85a20.131 20.131 0 0 1-6.134 1.359 3.955 3.955 0 0 1-2.069.926 2.115 2.115 0 0 1-1.234.994.4.4 0 0 1-.066.005 20.663 20.663 0 0 1-2.408-.715z" transform="translate(.001 1405.001)" style="fill:#b1bdc9"/>
</svg>
